<?xml version="1.0" standalone="no"?><!DOCTYPE svg PUBLIC "-//W3C//DTD SVG 1.1//EN" "http://www.w3.org/Graphics/SVG/1.1/DTD/svg11.dtd"><svg t="1612319707018" class="icon" viewBox="0 0 1199 1024" version="1.1" xmlns="http://www.w3.org/2000/svg" p-id="2380" width="234.1796875" height="200" xmlns:xlink="http://www.w3.org/1999/xlink"><defs><style type="text/css"></style></defs><path d="M1151.188154 784.994957c-63.684729 33.740419-395.369785 170.924819-465.672731 207.986834-70.277972 37.062015-109.812453 36.512578-165.280604 9.964787s-408.006833-170.375382-471.716536-200.794206C16.675918 786.668242 0.192812 773.931296 0.192812 761.768761v-122.249706s459.079488-100.671821 533.203518-127.219612c74.149005-26.572766 99.947564-27.671639 163.082856-4.445444 63.185241 23.226195 439.874172 91.830882 502.485002 114.507641v120.051959c0 11.063661-14.834796 25.448917-47.776034 42.581358z" fill="#A42122" p-id="2381"></path><path d="M1151.387949 674.358349c-63.684729 32.716469-395.394759 165.680194-465.697705 201.593386-70.277972 35.938167-109.837427 35.413704-165.280604 9.665094-55.468151-25.723636-408.031807-165.155732-471.766485-194.650502-63.684729-29.494771-64.783603-49.873884-2.172773-73.999158 62.61083-24.125274 412.976739-158.187873 487.100769-183.936483 74.149005-25.723636 99.947564-26.797535 163.10783-4.270623 63.160267 22.501938 392.098138 150.670577 454.708968 172.648052 62.61083 21.977475 64.259141 40.758227 0 72.925259z" fill="#D82F27" p-id="2382"></path><path d="M1151.188154 588.471374c-63.684729 33.740419-395.369785 170.924819-465.672731 207.986834-70.277972 37.062015-109.812453 36.512578-165.280604 9.989762-55.468151-26.572766-408.006833-170.400356-471.716536-200.81918C16.675918 590.144659 0.192812 577.407713 0.192812 565.220204v-122.249706s459.079488-100.671821 533.203518-127.219612c74.149005-26.547791 99.947564-27.671639 163.082856-4.420469 63.185241 23.226195 439.874172 91.805908 502.485002 114.482666v120.051959c0 11.063661-14.834796 25.448917-47.776034 42.581358z" fill="#A42122" p-id="2383"></path><path d="M1151.837488 478.059536c-63.709704 32.691494-395.544605 165.530348-465.872526 201.418565-70.327921 35.888218-109.887376 35.338781-165.355527 9.64012-55.493125-25.723636-408.206628-164.980911-471.916331-194.450707-63.734678-29.469796-64.833552-49.798961-2.197748-73.924235 62.61083-24.1003 413.126586-158.537515 487.300565-184.236176 74.173979-25.723636 99.972538-26.797535 163.157779-4.295597 63.185241 22.476963 392.272959 150.520731 454.334351 172.473232 62.086368 21.977475 64.833552 40.708278 0.549437 73.399772z" fill="#D82F27" p-id="2384"></path><path d="M1151.712616 391.947792c-63.734678 33.765394-395.56958 170.949793-465.872526 208.011808-70.327921 37.062015-109.887376 36.487604-165.380501 9.939813-55.493125-26.547791-408.181654-170.375382-471.916332-200.794206C16.675918 393.646051 0.192812 380.909105 0.192812 368.721596V246.47189s459.279284-100.671821 533.453262-127.219612c74.173979-26.547791 99.997512-27.671639 163.182754-4.420469 63.185241 23.226195 439.499556 91.805908 502.13536 114.50764v120.026985c0 11.063661-14.285359 25.448917-47.251572 42.581358z" fill="#A42122" p-id="2385"></path><path d="M1151.387949 261.906072c-63.684729 32.66652-395.394759 165.505373-465.697705 201.393591-70.277972 35.888218-109.837427 35.363756-165.280604 9.64012-55.468151-25.723636-408.031807-165.505373-471.766485-194.97517-63.684729-29.469796-64.783603-49.798961-2.172773-73.924234C109.081212 179.940079 459.447121 46.027326 533.571151 20.328665 607.720156-5.394971 633.543689-6.443896 696.678981 16.033068c63.160267 22.501938 392.098138 150.520731 454.708968 172.473231 62.61083 21.977475 64.259141 40.708278 0 73.399773z" fill="#D82F27" p-id="2386"></path><path d="M766.632286 145.550325l-105.966395 10.813917-23.525888 55.168458-38.685351-61.661803-122.199757-10.26448 91.381343-31.917288-27.471844-48.700087 85.187691 31.917288 80.717272-25.398969-21.852603 50.298449 82.415532 29.719541z m-136.235372 267.201145l-197.8722-78.969064 283.659277-42.206743-85.787077 121.175807zM196.716394 235.882743c0 32.541648 65.982375 58.939593 147.373956 58.939593 81.416556 0 147.39893-26.397945 147.398931-58.939593 0-32.566622-65.982375-58.964567-147.398931-58.964567-81.391582 0-147.373956 26.397945-147.373956 58.939593z" fill="#FFFFFF" p-id="2387"></path><path d="M884.536446 157.26332l157.213871 68.50479-156.689409 69.054226-0.524462-137.559016z" fill="#791514" p-id="2388"></path><path d="M688.012863 229.639142l176.31929-72.375822 0.549437 130.940799-17.58198 6.618217z" fill="#AD2524" p-id="2389"></path></svg>