<svg t="1612323985258" class="icon" viewBox="0 0 1024 1024" version="1.1" xmlns="http://www.w3.org/2000/svg" p-id="9761" width="200" height="200"><path d="M184.32 835.072A455.5264 455.5264 0 0 1 51.712 512c0-254.464 206.336-460.288 460.288-460.288s460.288 206.336 460.288 460.288c0 125.952-50.688 240.128-132.608 323.072-86.528 88.064-204.8 137.216-327.68 137.216-123.392 0.512-241.664-49.152-327.68-137.216z m26.624-60.928a343.6544 343.6544 0 0 1 209.408-163.328A184.6272 184.6272 0 0 1 512 266.24c83.456 0 156.672 56.32 178.176 136.704 21.504 80.896-14.336 165.888-86.528 207.36a346.624 346.624 0 0 1 209.408 163.328 398.5408 398.5408 0 0 0 98.304-262.144c0-220.16-178.688-398.848-398.848-398.848-220.672 0.512-399.36 179.2-399.36 399.36-0.512 96.256 34.816 189.44 97.792 262.144z m0 0" p-id="9762" fill="#1296db"></path></svg>
